<svg width="219" height="50" viewBox="0 0 219 50" fill="none" xmlns="http://www.w3.org/2000/svg">
<path d="M71.5273 32.0349H74.9351V17.1483L79.8189 30.3028H83.2513L88.1351 17.1483V32.0349H91.5393V12.1338H86.7685L81.5351 26.2898L76.3017 12.1338H71.5273V32.0349Z" fill="#159FEC"/>
<path d="M101.937 32.3168C106.249 32.3168 109.081 28.9524 109.081 24.9644C109.081 20.9941 106.249 17.6689 101.937 17.6689C97.6251 17.6689 94.793 20.9941 94.793 24.9644C94.793 28.9524 97.6251 32.3168 101.937 32.3168ZM101.937 29.3587C99.3696 29.3587 98.3349 27.2738 98.3349 24.9644C98.3349 22.6549 99.3696 20.6413 101.937 20.6413C104.518 20.6413 105.539 22.6549 105.539 24.9644C105.539 27.2738 104.518 29.3587 101.937 29.3587Z" fill="#159FEC"/>
<path d="M111.844 32.0353H115.138V26.0906C115.138 22.5124 116.798 21.0226 118.391 21.0226C118.935 21.0226 119.45 21.1901 119.909 21.5002L121.46 18.6811C120.789 17.9933 119.828 17.6689 118.906 17.6689C117.342 17.6689 115.767 18.6277 115.167 20.3312V17.9648H111.844V32.0353Z" fill="#159FEC"/>
<path d="M123.242 38.2045H126.703V30.6275C127.681 31.8392 129.214 32.3168 130.679 32.3168C134.532 32.3168 136.654 28.8954 136.654 24.9929C136.654 21.0761 134.532 17.6689 130.626 17.6689C129.132 17.6689 127.681 18.1608 126.703 19.3725V17.9648H123.242V38.2045ZM129.786 29.1485C127.455 29.1485 126.396 27.3593 126.396 24.9929C126.396 22.6264 127.455 20.7518 129.786 20.7518C132.131 20.7518 133.193 22.6264 133.193 24.9929C133.193 27.3593 132.131 29.1485 129.786 29.1485Z" fill="#159FEC"/>
<path d="M139.588 32.0349H143.049V24.907C143.049 22.5691 144.08 20.7799 146.259 20.7799C148.31 20.7799 148.769 22.2875 148.769 24.0196V32.0349H152.23V23.5848C152.23 20.641 150.74 17.6686 147.081 17.6686C145.715 17.6686 144.164 18.2175 143.049 19.5967V12.1338H139.588V32.0349Z" fill="#159FEC"/>
<path d="M161.71 32.3168C166.022 32.3168 168.854 28.9524 168.854 24.9644C168.854 20.9941 166.022 17.6689 161.71 17.6689C157.399 17.6689 154.566 20.9941 154.566 24.9644C154.566 28.9524 157.399 32.3168 161.71 32.3168ZM161.71 29.3587C159.143 29.3587 158.108 27.2738 158.108 24.9644C158.108 22.6549 159.143 20.6413 161.71 20.6413C164.292 20.6413 165.312 22.6549 165.312 24.9644C165.312 27.2738 164.292 29.3587 161.71 29.3587Z" fill="#159FEC"/>
<path d="M175.858 32.0349H179.28L183.564 18.9374L187.861 32.0349H191.28L197.198 12.1338H193.515L189.313 26.7817L184.944 13.2885H182.197L177.829 26.7817L173.627 12.1338H169.943L175.858 32.0349Z" fill="#159FEC"/>
<path d="M199.484 15.3021H203.03V12.1338H199.484V15.3021ZM199.569 32.0349H202.945V17.9644H199.569V32.0349Z" fill="#159FEC"/>
<path d="M218.003 17.9648H206.113V20.8374H213.592L205.707 29.7544V32.0353H218.003V29.1485H210.439L218.003 20.4168V17.9648Z" fill="#159FEC"/>
<path d="M18.7206 1.39059C26.5009 -1.59433 34.8532 0.912404 38.0569 2.53888C49.2735 8.07235 54.6076 14.6101 55.8725 17.1873C60.9718 25.7423 51.8093 35.0699 46.073 39.5727C41.2545 43.6253 32.5608 47.6296 28.8163 49.1251C19.5617 52.4444 11.2249 45.5229 8.21335 41.6473C2.4388 35.8965 0.375964 27.9494 0.0663663 24.6947C-0.434118 19.6896 2.01879 14.9561 3.3078 13.215C5.20358 10.5172 10.9402 4.3755 18.7206 1.39059Z" fill="url(#paint0_linear_530_22919)"/>
<path d="M14.5048 35.9613C14.5881 35.8072 14.6575 35.646 14.7107 35.4778C14.764 35.3096 14.801 35.1391 14.8218 34.9639C14.8404 34.7887 14.8427 34.6135 14.8288 34.4383C14.8149 34.2608 14.7825 34.0902 14.7339 33.9197C14.6853 33.7515 14.6228 33.588 14.5418 33.4315C14.4608 33.275 14.3659 33.1278 14.2571 32.9877C14.1483 32.8499 14.028 32.7261 13.8937 32.6116C13.7595 32.4971 13.616 32.3967 13.4632 32.3126C13.3105 32.2262 13.1507 32.1584 12.9841 32.1047C12.8175 32.051 12.6462 32.0136 12.4726 31.9926C12.299 31.9739 12.1254 31.9716 11.9495 31.9856C11.7759 31.9996 11.6046 32.0323 11.4357 32.0813C11.2667 32.1304 11.1047 32.1935 10.9496 32.2752C10.7946 32.3546 10.6487 32.4504 10.5122 32.5602C10.3733 32.67 10.2483 32.7938 10.1372 32.927C10.0238 33.0624 9.92429 33.2073 9.83865 33.3614C9.75532 33.5156 9.68589 33.6768 9.63265 33.845C9.57942 34.0132 9.54239 34.1837 9.52387 34.3589C9.50304 34.5341 9.50073 34.7093 9.51461 34.8845C9.53081 35.0597 9.5609 35.2325 9.60951 35.403C9.65811 35.5712 9.72292 35.7347 9.80162 35.8912C9.88262 36.0478 9.97752 36.1949 10.0863 36.3327C10.1951 36.4706 10.3178 36.5967 10.4497 36.7112C10.5839 36.8256 10.7274 36.9237 10.8802 37.0102C11.0353 37.0966 11.195 37.1643 11.3616 37.2181C11.5283 37.2718 11.6972 37.3092 11.8708 37.3278C12.0467 37.3489 12.2203 37.3512 12.3939 37.3349C12.5675 37.3208 12.7388 37.2905 12.9077 37.2414C13.0767 37.1924 13.2387 37.127 13.3938 37.0475C13.5488 36.9658 13.6947 36.87 13.8335 36.7602C13.9701 36.6504 14.0951 36.529 14.2085 36.3958C14.3196 36.2603 14.4191 36.1155 14.5048 35.9613Z" fill="white"/>
<path d="M37.3341 35.041C37.1003 34.9102 36.848 34.8284 36.5819 34.7981C36.3157 34.7677 36.0518 34.7911 35.7949 34.8658C35.5357 34.9406 35.3019 35.062 35.0913 35.2302C34.883 35.3984 34.7117 35.6016 34.5821 35.8376C34.4525 36.0735 34.3715 36.3258 34.3414 36.5967C34.3113 36.8654 34.3321 37.1293 34.4062 37.3886C34.4826 37.6479 34.6029 37.8838 34.7696 38.0964C34.9362 38.3066 35.1376 38.4795 35.3737 38.6103C35.6075 38.7411 35.8597 38.8206 36.1259 38.8509C36.3921 38.8813 36.6559 38.8603 36.9129 38.7855C37.1721 38.7108 37.4058 38.5893 37.6142 38.4211C37.8248 38.2529 37.9961 38.0497 38.1257 37.8138C38.2553 37.5755 38.3363 37.3232 38.3664 37.0546C38.3965 36.786 38.3733 36.522 38.2993 36.2627C38.2252 36.0034 38.1048 35.7675 37.9382 35.5549C37.7692 35.3424 37.5702 35.1718 37.3341 35.041Z" fill="white"/>
<path d="M29.6101 39.6851C29.7837 39.3697 29.9249 39.0427 30.0314 38.6993C30.1402 38.3583 30.2142 38.0079 30.2536 37.6528C30.2952 37.2954 30.2999 36.938 30.2698 36.5806C30.2397 36.2232 30.1749 35.8728 30.0777 35.5271C29.9781 35.1837 29.8462 34.852 29.6842 34.532C29.5199 34.2143 29.3278 33.913 29.1056 33.6327C28.8834 33.3524 28.6357 33.0954 28.3649 32.8642C28.0918 32.6329 27.8002 32.4297 27.4877 32.2568C27.1752 32.0816 26.8512 31.9415 26.511 31.8317C26.1707 31.7219 25.8259 31.6471 25.4717 31.6074C25.1176 31.5677 24.7612 31.5631 24.4071 31.5911C24.0529 31.6214 23.7034 31.6869 23.3609 31.785C23.0183 31.8854 22.6897 32.0162 22.3726 32.1821C22.0555 32.3456 21.7569 32.5395 21.4792 32.7637C21.1991 32.9856 20.9445 33.2356 20.7154 33.5089C20.4862 33.7822 20.2849 34.0765 20.1113 34.3919C19.9377 34.7049 19.7988 35.0319 19.69 35.3753C19.5812 35.7163 19.5072 36.0644 19.4655 36.4218C19.4262 36.7792 19.4215 37.1366 19.4493 37.494C19.4794 37.8514 19.5442 38.2018 19.6414 38.5475C19.7409 38.8909 19.8706 39.2249 20.0349 39.5426C20.1969 39.8626 20.389 40.1616 20.6112 40.4419C20.8334 40.7246 21.0788 40.9792 21.3519 41.2128C21.6227 41.444 21.9143 41.6473 22.2268 41.8201C22.5392 41.9953 22.8656 42.1378 23.2058 42.2453C23.5437 42.355 23.8909 42.4298 24.2474 42.4718C24.6015 42.5116 24.9556 42.5162 25.312 42.4882C25.6662 42.4578 26.0157 42.3924 26.3582 42.2943C26.7008 42.1939 27.0317 42.0631 27.3488 41.8972C27.6659 41.7337 27.9645 41.5398 28.2422 41.3156C28.5223 41.0913 28.7769 40.8414 29.006 40.5681C29.2375 40.2924 29.4389 39.9981 29.6101 39.6851Z" fill="white"/>
<path d="M21.5182 28.5596C21.6362 28.3447 21.7265 28.1181 21.789 27.8822C21.8515 27.6439 21.8839 27.4033 21.8862 27.158C21.8885 26.9127 21.8631 26.6698 21.8052 26.4315C21.7496 26.1933 21.6663 25.9644 21.5529 25.7471C21.4395 25.5299 21.3029 25.329 21.1409 25.1468C20.9812 24.9622 20.7984 24.8011 20.597 24.6632C20.3956 24.5254 20.1804 24.4133 19.9536 24.3292C19.7244 24.2428 19.4883 24.1891 19.2476 24.161C16.9123 23.8807 15.1648 21.4747 16.3984 18.7557C16.5072 18.5151 16.5905 18.2628 16.6461 18.0035C16.704 17.7442 16.7317 17.4826 16.734 17.2163C16.734 16.95 16.7063 16.6884 16.653 16.4291C16.5975 16.1698 16.5165 15.9175 16.41 15.6746C16.3012 15.4316 16.1716 15.2051 16.0142 14.9902C15.8591 14.7753 15.6832 14.5814 15.4865 14.4038C15.2875 14.2286 15.0745 14.0745 14.8454 13.9437C14.6162 13.8129 14.3755 13.7077 14.1232 13.6283C13.8733 13.5489 13.614 13.4975 13.3525 13.4718C13.091 13.4484 12.8271 13.4531 12.5656 13.4835C12.304 13.5162 12.0494 13.5746 11.7995 13.6634C11.5495 13.7498 11.3134 13.8619 11.0866 13.9974C10.8621 14.1352 10.6538 14.2964 10.4616 14.4786C10.2695 14.6608 10.0983 14.8617 9.95014 15.0789C9.79969 15.2985 9.67471 15.5298 9.57518 15.775C9.47334 16.0226 9.39928 16.2749 9.35299 16.5365C9.3067 16.7982 9.28586 17.0621 9.29512 17.3261C9.30438 17.5924 9.34141 17.854 9.40391 18.111C9.46871 18.3679 9.55898 18.6179 9.67471 18.8561C9.79043 19.0944 9.93162 19.3163 10.0936 19.5242C10.258 19.7344 10.4408 19.9213 10.6445 20.0918C10.8482 20.26 11.0657 20.4072 11.3018 20.5286C11.5356 20.6501 11.7786 20.7459 12.0332 20.816C12.2878 20.886 12.547 20.9281 12.8109 20.9444C15.7666 21.1337 17.0534 23.8223 16.1924 26.0321C16.1253 26.2073 16.0744 26.3848 16.042 26.5694C16.0073 26.7516 15.9911 26.9384 15.9911 27.123C15.9934 27.3099 16.0119 27.4967 16.0466 27.6789C16.0813 27.8611 16.1346 28.041 16.2017 28.2139C16.2711 28.3867 16.3545 28.5526 16.454 28.7091C16.5558 28.8679 16.6692 29.0127 16.7942 29.1506C16.9215 29.2861 17.0604 29.4075 17.2108 29.5173C17.3613 29.6271 17.5187 29.7229 17.6876 29.8023C17.8543 29.8817 18.0279 29.9448 18.2084 29.9915C18.3866 30.0359 18.5695 30.0663 18.7546 30.0779C18.9398 30.0896 19.125 30.0849 19.3078 30.0616C19.493 30.0382 19.6712 29.9985 19.8494 29.9424C20.0253 29.8841 20.1943 29.8116 20.3586 29.7205C20.5206 29.6318 20.6734 29.529 20.8169 29.4099C20.9604 29.2907 21.09 29.1599 21.2104 29.0174C21.3284 28.8749 21.4325 28.7208 21.5228 28.5572L21.5182 28.5596Z" fill="white"/>
<path d="M31.5318 24.9005C31.2795 24.7604 31.0134 24.6716 30.7287 24.6342C30.444 24.5969 30.1616 24.6109 29.8816 24.681C29.6038 24.751 29.3469 24.8678 29.1131 25.036C28.877 25.2042 28.6826 25.4074 28.5252 25.6504C28.3678 25.891 28.2591 26.1526 28.1989 26.4376C28.141 26.7202 28.1341 27.0029 28.1827 27.2902C28.2313 27.5752 28.3285 27.8415 28.4766 28.0891C28.6224 28.3367 28.8099 28.5493 29.0391 28.7268C29.2659 28.902 29.5182 29.0305 29.7936 29.1122C30.069 29.1916 30.3491 29.2197 30.6361 29.194C30.9231 29.1659 31.1939 29.0889 31.4508 28.9604C31.7077 28.8296 31.9322 28.6567 32.1243 28.4418C33.0617 27.393 35.1564 26.5053 36.927 29.5584C37.0312 29.7429 37.1446 29.9204 37.2672 30.091C37.3922 30.2615 37.5242 30.4273 37.6653 30.5838C37.8065 30.7404 37.9547 30.8875 38.112 31.0277C38.2694 31.1702 38.4338 31.301 38.6074 31.4224C38.7786 31.5439 38.9569 31.656 39.1397 31.7588C39.3225 31.8616 39.5123 31.9527 39.7068 32.0345C39.9012 32.1162 40.0979 32.1886 40.2993 32.247C40.5006 32.3078 40.7066 32.3568 40.9126 32.3919C41.1186 32.4292 41.3269 32.4549 41.5376 32.4689C41.7482 32.483 41.9565 32.4876 42.1671 32.4783C42.3777 32.4689 42.586 32.4479 42.7944 32.4152C43.0003 32.3849 43.2063 32.3405 43.41 32.2867C43.6137 32.2307 43.8127 32.1653 44.0072 32.0882C44.2039 32.0111 44.396 31.9247 44.5812 31.8266C44.7687 31.7285 44.9492 31.621 45.1228 31.5019C45.2964 31.3851 45.4653 31.2589 45.625 31.1211C45.787 30.9856 45.9398 30.8408 46.0856 30.6866C46.2291 30.5348 46.3657 30.3736 46.493 30.2054C46.6203 30.0372 46.7383 29.862 46.8471 29.6798C46.9559 29.5 47.0531 29.3131 47.141 29.1192C47.229 28.9277 47.3077 28.7315 47.3748 28.5306C47.4396 28.3297 47.4952 28.1265 47.5415 27.9186C47.5854 27.713 47.6178 27.5028 47.641 27.2925C47.6618 27.0823 47.6711 26.8721 47.6711 26.6595C47.6688 26.4493 47.6572 26.2367 47.6317 26.0265C47.6086 25.8162 47.5739 25.6083 47.5253 25.4028C47.479 25.1949 47.4211 24.994 47.3517 24.7931C47.2822 24.5922 47.2035 24.3983 47.1133 24.2068C47.023 24.0152 46.9212 23.8307 46.8124 23.6508C46.7013 23.4686 46.5809 23.2957 46.4513 23.1299C46.3217 22.9617 46.1851 22.8029 46.037 22.651C45.8912 22.5015 45.7361 22.3567 45.5741 22.2236C45.4121 22.0881 45.2431 21.9643 45.0672 21.8475C44.8913 21.733 44.7085 21.6256 44.521 21.5298C44.3335 21.434 44.1414 21.3499 43.9447 21.2752C43.7479 21.2004 43.5489 21.1373 43.3452 21.086C43.1415 21.0322 42.9355 20.9925 42.7272 20.9622C42.5189 20.9318 42.3083 20.9154 42.1 20.9084C41.8894 20.9014 41.6787 20.9061 41.4704 20.9224C41.2598 20.9411 41.0515 20.9692 40.8455 21.0089C40.6395 21.0486 40.4358 21.0976 40.2345 21.1607C40.0331 21.2238 39.8364 21.2962 39.6443 21.3803C39.4522 21.4644 39.2624 21.5578 39.0795 21.6629C38.8967 21.768 38.7208 21.8825 38.5518 22.0063C38.3805 22.1301 38.2185 22.2633 38.0611 22.4058C37.9061 22.5482 37.7579 22.6977 37.619 22.8566C37.4802 23.0154 37.3506 23.1813 37.2279 23.3541C37.1075 23.527 36.9964 23.7045 36.8946 23.8914C36.8761 23.9218 36.8599 23.9545 36.846 23.9848C35.1911 27.1267 33.0687 26.3395 32.085 25.3303C31.923 25.1575 31.7378 25.015 31.5318 24.9005Z" fill="white"/>
<path d="M38.6351 16.354C38.7555 16.1344 38.8527 15.9055 38.9291 15.6649C39.0054 15.4267 39.0564 15.1814 39.0864 14.9338C39.1142 14.6838 39.1165 14.4339 39.0957 14.1839C39.0749 13.9317 39.0309 13.6864 38.9615 13.4458C38.8943 13.2052 38.8018 12.9716 38.6883 12.7497C38.5726 12.5254 38.4384 12.3152 38.2833 12.119C38.1282 11.9228 37.9546 11.7429 37.7648 11.5817C37.5727 11.4182 37.3691 11.278 37.1515 11.1566C36.9339 11.0351 36.7048 10.9347 36.4664 10.8576C36.2303 10.7828 35.9873 10.7291 35.7396 10.7011C35.492 10.673 35.2443 10.6707 34.9943 10.6917C34.7467 10.7127 34.5013 10.7571 34.2629 10.8272C34.0222 10.8949 33.7931 10.9884 33.5709 11.1028C33.3487 11.2196 33.1404 11.3551 32.946 11.5116C32.7516 11.6681 32.5733 11.841 32.4113 12.0349C32.2516 12.2264 32.1104 12.432 31.9901 12.6516C31.8697 12.8711 31.7702 13.1001 31.6938 13.3407C31.6197 13.5789 31.5665 13.8242 31.5387 14.0741C31.511 14.3218 31.5087 14.5717 31.5295 14.824C31.5503 15.0739 31.5943 15.3192 31.6637 15.5598C31.7332 15.8027 31.8234 16.034 31.9392 16.2559C32.0526 16.4802 32.1891 16.6904 32.3442 16.8866C32.4993 17.0828 32.6729 17.2627 32.8627 17.4239C33.0524 17.585 33.2584 17.7275 33.476 17.849C33.6936 17.9705 33.9227 18.0686 34.1588 18.1457C34.3972 18.2204 34.6402 18.2741 34.8879 18.3022C35.1355 18.3302 35.3832 18.3325 35.6308 18.3115C35.8785 18.2905 36.1238 18.2461 36.3622 18.176C36.6029 18.1083 36.8321 18.0149 37.0543 17.9004C37.2742 17.7859 37.4825 17.6481 37.6792 17.4939C37.8736 17.3374 38.0518 17.1622 38.2115 16.9707C38.3736 16.7792 38.5148 16.5736 38.6351 16.354Z" fill="white"/>
<path d="M26.3405 17.0687C26.4215 16.9238 26.484 16.7743 26.5349 16.6178C26.5835 16.4613 26.6182 16.3001 26.6367 16.1366C26.6552 15.9731 26.6576 15.8096 26.6437 15.6461C26.6298 15.4826 26.5997 15.3214 26.5557 15.1649C26.5094 15.006 26.4516 14.8542 26.3752 14.707C26.3011 14.5622 26.2132 14.4244 26.1113 14.2959C26.0095 14.1674 25.8961 14.0506 25.7711 13.9432C25.6461 13.8381 25.5119 13.7446 25.3707 13.6652C25.2272 13.5858 25.079 13.5204 24.9217 13.4713C24.7666 13.4223 24.6092 13.3872 24.4472 13.3686C24.2852 13.3499 24.1208 13.3475 23.9588 13.3615C23.7968 13.3756 23.6371 13.4059 23.4797 13.4503C23.3223 13.4947 23.1719 13.5554 23.0261 13.6325C22.8826 13.7073 22.746 13.796 22.6187 13.8988C22.4891 14.0016 22.3734 14.1137 22.2692 14.2399C22.1627 14.366 22.0702 14.4991 21.9915 14.644C21.9128 14.7888 21.848 14.9383 21.7994 15.0948C21.7484 15.2513 21.716 15.4102 21.6975 15.5737C21.679 15.7372 21.6767 15.9007 21.6906 16.0642C21.7045 16.2301 21.7322 16.3889 21.7785 16.5478C21.8225 16.7066 21.8827 16.8584 21.9591 17.0033C22.0331 17.1504 22.1211 17.2882 22.2229 17.4167C22.3248 17.5452 22.4382 17.662 22.5631 17.7671C22.6881 17.8746 22.8201 17.9657 22.9636 18.0474C23.1071 18.1268 23.2552 18.1899 23.4103 18.2413C23.5653 18.2904 23.725 18.3254 23.8871 18.3418C24.0491 18.3604 24.2111 18.3628 24.3754 18.3488C24.5374 18.3371 24.6971 18.3067 24.8545 18.26C25.0096 18.2156 25.1624 18.1549 25.3059 18.0801C25.4517 18.0054 25.5882 17.9166 25.7155 17.8138C25.8428 17.7111 25.9586 17.5966 26.065 17.4728C26.1692 17.3466 26.2618 17.2112 26.3405 17.0687Z" fill="white"/>
<path d="M29.8606 9.34389C29.9416 9.19907 29.9902 9.04723 30.0087 8.88372C30.0295 8.71787 30.0156 8.55902 29.9717 8.40018C29.9277 8.24134 29.8536 8.09651 29.7541 7.96803C29.6523 7.83722 29.5296 7.73444 29.3861 7.65268C29.2449 7.57326 29.0921 7.52187 28.9301 7.50318C28.7658 7.48449 28.6061 7.49851 28.4487 7.54289C28.2913 7.58728 28.1501 7.66203 28.0205 7.76247C27.8932 7.86525 27.7891 7.98906 27.7081 8.13155C27.6294 8.27637 27.5808 8.43055 27.5622 8.59406C27.5414 8.75758 27.5553 8.91876 27.5993 9.0776C27.6456 9.23411 27.7173 9.37893 27.8192 9.50741C27.921 9.63589 28.0437 9.741 28.1872 9.82042C28.3283 9.90218 28.4811 9.95124 28.6431 9.96992C28.8051 9.98861 28.9648 9.97693 29.1222 9.93021C29.2796 9.88583 29.4208 9.81342 29.5504 9.71064C29.6777 9.61019 29.7819 9.48639 29.8606 9.34389Z" fill="white"/>
<path d="M47.8769 19.2853C47.9764 19.1054 48.0366 18.9139 48.0598 18.7107C48.0829 18.5074 48.0667 18.3089 48.0111 18.1103C47.9556 17.9141 47.863 17.7366 47.738 17.5754C47.6107 17.4165 47.458 17.2857 47.2821 17.1876C47.1038 17.0872 46.9141 17.0264 46.7127 17.0054C46.509 16.9821 46.3123 16.9984 46.1155 17.0545C45.9211 17.1129 45.7429 17.204 45.5855 17.3325C45.4258 17.4586 45.2985 17.6128 45.199 17.7926C45.1018 17.9702 45.0416 18.1617 45.0185 18.3649C44.9976 18.5682 45.0138 18.769 45.0717 18.9653C45.1272 19.1615 45.2198 19.339 45.3471 19.5002C45.4744 19.659 45.6272 19.7875 45.8054 19.8856C45.9813 19.9837 46.1711 20.0445 46.3725 20.0678C46.5738 20.0889 46.7706 20.0725 46.965 20.0164C47.1594 19.9604 47.3353 19.8669 47.4927 19.7408C47.6501 19.6147 47.7797 19.4628 47.8769 19.2853Z" fill="white"/>
<defs>
<linearGradient id="paint0_linear_530_22919" x1="28.6815" y1="0" x2="28.6815" y2="50" gradientUnits="userSpaceOnUse">
<stop stop-color="#1DE7EB"/>
<stop offset="0.650256" stop-color="#1DBFFD"/>
</linearGradient>
</defs>
</svg>
